<svg xmlns="http://www.w3.org/2000/svg" viewBox="-93 -257 191 327">
<g class="isocube" transform="translate(-22, -36)">
  <polygon points="0,-24 22,-12 0,0 -22,-12" fill="#dcb756" stroke="rgba(0,0,0,0.25)" stroke-width="1" stroke-linejoin="round"/>
  <polygon points="0,0 -22,-12 -22,12 0,24" fill="#b48d3c" stroke="rgba(0,0,0,0.25)" stroke-width="1" stroke-linejoin="round"/>
  <polygon points="0,0 22,-12 22,12 0,24" fill="#856322" stroke="rgba(0,0,0,0.25)" stroke-width="1" stroke-linejoin="round"/>
</g>
<g class="isocube" transform="translate(22, -36)">
  <polygon points="0,-24 22,-12 0,0 -22,-12" fill="#dcb756" stroke="rgba(0,0,0,0.25)" stroke-width="1" stroke-linejoin="round"/>
  <polygon points="0,0 -22,-12 -22,12 0,24" fill="#b48d3c" stroke="rgba(0,0,0,0.25)" stroke-width="1" stroke-linejoin="round"/>
  <polygon points="0,0 22,-12 22,12 0,24" fill="#856322" stroke="rgba(0,0,0,0.25)" stroke-width="1" stroke-linejoin="round"/>
</g>
<g class="isocube" transform="translate(-44, -24)">
  <polygon points="0,-24 22,-12 0,0 -22,-12" fill="#dcb756" stroke="rgba(0,0,0,0.25)" stroke-width="1" stroke-linejoin="round"/>
  <polygon points="0,0 -22,-12 -22,12 0,24" fill="#b48d3c" stroke="rgba(0,0,0,0.25)" stroke-width="1" stroke-linejoin="round"/>
  <polygon points="0,0 22,-12 22,12 0,24" fill="#856322" stroke="rgba(0,0,0,0.25)" stroke-width="1" stroke-linejoin="round"/>
</g>
<g class="isocube" transform="translate(0, -24)">
  <polygon points="0,-24 22,-12 0,0 -22,-12" fill="#dcb756" stroke="rgba(0,0,0,0.25)" stroke-width="1" stroke-linejoin="round"/>
  <polygon points="0,0 -22,-12 -22,12 0,24" fill="#b48d3c" stroke="rgba(0,0,0,0.25)" stroke-width="1" stroke-linejoin="round"/>
  <polygon points="0,0 22,-12 22,12 0,24" fill="#856322" stroke="rgba(0,0,0,0.25)" stroke-width="1" stroke-linejoin="round"/>
</g>
<g class="isocube" transform="translate(44, -24)">
  <polygon points="0,-24 22,-12 0,0 -22,-12" fill="#dcb756" stroke="rgba(0,0,0,0.25)" stroke-width="1" stroke-linejoin="round"/>
  <polygon points="0,0 -22,-12 -22,12 0,24" fill="#b48d3c" stroke="rgba(0,0,0,0.25)" stroke-width="1" stroke-linejoin="round"/>
  <polygon points="0,0 22,-12 22,12 0,24" fill="#856322" stroke="rgba(0,0,0,0.25)" stroke-width="1" stroke-linejoin="round"/>
</g>
<g class="isocube" transform="translate(-66, -12)">
  <polygon points="0,-24 22,-12 0,0 -22,-12" fill="#dcb756" stroke="rgba(0,0,0,0.25)" stroke-width="1" stroke-linejoin="round"/>
  <polygon points="0,0 -22,-12 -22,12 0,24" fill="#b48d3c" stroke="rgba(0,0,0,0.25)" stroke-width="1" stroke-linejoin="round"/>
  <polygon points="0,0 22,-12 22,12 0,24" fill="#856322" stroke="rgba(0,0,0,0.25)" stroke-width="1" stroke-linejoin="round"/>
</g>
<g class="isocube" transform="translate(-22, -12)">
  <polygon points="0,-24 22,-12 0,0 -22,-12" fill="#dcb756" stroke="rgba(0,0,0,0.25)" stroke-width="1" stroke-linejoin="round"/>
  <polygon points="0,0 -22,-12 -22,12 0,24" fill="#b48d3c" stroke="rgba(0,0,0,0.25)" stroke-width="1" stroke-linejoin="round"/>
  <polygon points="0,0 22,-12 22,12 0,24" fill="#856322" stroke="rgba(0,0,0,0.25)" stroke-width="1" stroke-linejoin="round"/>
</g>
<g class="isocube" transform="translate(22, -12)">
  <polygon points="0,-24 22,-12 0,0 -22,-12" fill="#dcb756" stroke="rgba(0,0,0,0.25)" stroke-width="1" stroke-linejoin="round"/>
  <polygon points="0,0 -22,-12 -22,12 0,24" fill="#b48d3c" stroke="rgba(0,0,0,0.25)" stroke-width="1" stroke-linejoin="round"/>
  <polygon points="0,0 22,-12 22,12 0,24" fill="#856322" stroke="rgba(0,0,0,0.25)" stroke-width="1" stroke-linejoin="round"/>
</g>
<g class="isocube" transform="translate(66, -12)">
  <polygon points="0,-24 22,-12 0,0 -22,-12" fill="#dcb756" stroke="rgba(0,0,0,0.25)" stroke-width="1" stroke-linejoin="round"/>
  <polygon points="0,0 -22,-12 -22,12 0,24" fill="#b48d3c" stroke="rgba(0,0,0,0.25)" stroke-width="1" stroke-linejoin="round"/>
  <polygon points="0,0 22,-12 22,12 0,24" fill="#856322" stroke="rgba(0,0,0,0.25)" stroke-width="1" stroke-linejoin="round"/>
</g>
<g class="isocube" transform="translate(0, -48)">
  <polygon points="0,-24 22,-12 0,0 -22,-12" fill="#dcb756" stroke="rgba(0,0,0,0.25)" stroke-width="1" stroke-linejoin="round"/>
  <polygon points="0,0 -22,-12 -22,12 0,24" fill="#b48d3c" stroke="rgba(0,0,0,0.25)" stroke-width="1" stroke-linejoin="round"/>
  <polygon points="0,0 22,-12 22,12 0,24" fill="#856322" stroke="rgba(0,0,0,0.25)" stroke-width="1" stroke-linejoin="round"/>
</g>
<g class="isocube" transform="translate(-44, 0)">
  <polygon points="0,-24 22,-12 0,0 -22,-12" fill="#dcb756" stroke="rgba(0,0,0,0.25)" stroke-width="1" stroke-linejoin="round"/>
  <polygon points="0,0 -22,-12 -22,12 0,24" fill="#b48d3c" stroke="rgba(0,0,0,0.25)" stroke-width="1" stroke-linejoin="round"/>
  <polygon points="0,0 22,-12 22,12 0,24" fill="#856322" stroke="rgba(0,0,0,0.25)" stroke-width="1" stroke-linejoin="round"/>
</g>
<g class="isocube" transform="translate(0, 0)">
  <polygon points="0,-24 22,-12 0,0 -22,-12" fill="#dcb756" stroke="rgba(0,0,0,0.25)" stroke-width="1" stroke-linejoin="round"/>
  <polygon points="0,0 -22,-12 -22,12 0,24" fill="#b48d3c" stroke="rgba(0,0,0,0.25)" stroke-width="1" stroke-linejoin="round"/>
  <polygon points="0,0 22,-12 22,12 0,24" fill="#856322" stroke="rgba(0,0,0,0.25)" stroke-width="1" stroke-linejoin="round"/>
</g>
<g class="isocube" transform="translate(44, 0)">
  <polygon points="0,-24 22,-12 0,0 -22,-12" fill="#dcb756" stroke="rgba(0,0,0,0.25)" stroke-width="1" stroke-linejoin="round"/>
  <polygon points="0,0 -22,-12 -22,12 0,24" fill="#b48d3c" stroke="rgba(0,0,0,0.25)" stroke-width="1" stroke-linejoin="round"/>
  <polygon points="0,0 22,-12 22,12 0,24" fill="#856322" stroke="rgba(0,0,0,0.25)" stroke-width="1" stroke-linejoin="round"/>
</g>
<g class="isocube" transform="translate(-22, -36)">
  <polygon points="0,-24 22,-12 0,0 -22,-12" fill="#dcb756" stroke="rgba(0,0,0,0.25)" stroke-width="1" stroke-linejoin="round"/>
  <polygon points="0,0 -22,-12 -22,12 0,24" fill="#b48d3c" stroke="rgba(0,0,0,0.25)" stroke-width="1" stroke-linejoin="round"/>
  <polygon points="0,0 22,-12 22,12 0,24" fill="#856322" stroke="rgba(0,0,0,0.25)" stroke-width="1" stroke-linejoin="round"/>
</g>
<g class="isocube" transform="translate(22, -36)">
  <polygon points="0,-24 22,-12 0,0 -22,-12" fill="#dcb756" stroke="rgba(0,0,0,0.25)" stroke-width="1" stroke-linejoin="round"/>
  <polygon points="0,0 -22,-12 -22,12 0,24" fill="#b48d3c" stroke="rgba(0,0,0,0.25)" stroke-width="1" stroke-linejoin="round"/>
  <polygon points="0,0 22,-12 22,12 0,24" fill="#856322" stroke="rgba(0,0,0,0.25)" stroke-width="1" stroke-linejoin="round"/>
</g>
<g class="isocube" transform="translate(-66, 12)">
  <polygon points="0,-24 22,-12 0,0 -22,-12" fill="#dcb756" stroke="rgba(0,0,0,0.25)" stroke-width="1" stroke-linejoin="round"/>
  <polygon points="0,0 -22,-12 -22,12 0,24" fill="#b48d3c" stroke="rgba(0,0,0,0.25)" stroke-width="1" stroke-linejoin="round"/>
  <polygon points="0,0 22,-12 22,12 0,24" fill="#856322" stroke="rgba(0,0,0,0.25)" stroke-width="1" stroke-linejoin="round"/>
</g>
<g class="isocube" transform="translate(-22, 12)">
  <polygon points="0,-24 22,-12 0,0 -22,-12" fill="#dcb756" stroke="rgba(0,0,0,0.25)" stroke-width="1" stroke-linejoin="round"/>
  <polygon points="0,0 -22,-12 -22,12 0,24" fill="#b48d3c" stroke="rgba(0,0,0,0.25)" stroke-width="1" stroke-linejoin="round"/>
  <polygon points="0,0 22,-12 22,12 0,24" fill="#856322" stroke="rgba(0,0,0,0.25)" stroke-width="1" stroke-linejoin="round"/>
</g>
<g class="isocube" transform="translate(22, 12)">
  <polygon points="0,-24 22,-12 0,0 -22,-12" fill="#dcb756" stroke="rgba(0,0,0,0.25)" stroke-width="1" stroke-linejoin="round"/>
  <polygon points="0,0 -22,-12 -22,12 0,24" fill="#b48d3c" stroke="rgba(0,0,0,0.25)" stroke-width="1" stroke-linejoin="round"/>
  <polygon points="0,0 22,-12 22,12 0,24" fill="#856322" stroke="rgba(0,0,0,0.25)" stroke-width="1" stroke-linejoin="round"/>
</g>
<g class="isocube" transform="translate(66, 12)">
  <polygon points="0,-24 22,-12 0,0 -22,-12" fill="#dcb756" stroke="rgba(0,0,0,0.25)" stroke-width="1" stroke-linejoin="round"/>
  <polygon points="0,0 -22,-12 -22,12 0,24" fill="#b48d3c" stroke="rgba(0,0,0,0.25)" stroke-width="1" stroke-linejoin="round"/>
  <polygon points="0,0 22,-12 22,12 0,24" fill="#856322" stroke="rgba(0,0,0,0.25)" stroke-width="1" stroke-linejoin="round"/>
</g>
<g class="isocube" transform="translate(-44, -24)">
  <polygon points="0,-24 22,-12 0,0 -22,-12" fill="#dcb756" stroke="rgba(0,0,0,0.25)" stroke-width="1" stroke-linejoin="round"/>
  <polygon points="0,0 -22,-12 -22,12 0,24" fill="#b48d3c" stroke="rgba(0,0,0,0.25)" stroke-width="1" stroke-linejoin="round"/>
  <polygon points="0,0 22,-12 22,12 0,24" fill="#856322" stroke="rgba(0,0,0,0.25)" stroke-width="1" stroke-linejoin="round"/>
</g>
<g class="isocube" transform="translate(0, -24)">
  <polygon points="0,-24 22,-12 0,0 -22,-12" fill="#dcb756" stroke="rgba(0,0,0,0.25)" stroke-width="1" stroke-linejoin="round"/>
  <polygon points="0,0 -22,-12 -22,12 0,24" fill="#b48d3c" stroke="rgba(0,0,0,0.25)" stroke-width="1" stroke-linejoin="round"/>
  <polygon points="0,0 22,-12 22,12 0,24" fill="#856322" stroke="rgba(0,0,0,0.25)" stroke-width="1" stroke-linejoin="round"/>
</g>
<g class="isocube" transform="translate(44, -24)">
  <polygon points="0,-24 22,-12 0,0 -22,-12" fill="#dcb756" stroke="rgba(0,0,0,0.25)" stroke-width="1" stroke-linejoin="round"/>
  <polygon points="0,0 -22,-12 -22,12 0,24" fill="#b48d3c" stroke="rgba(0,0,0,0.25)" stroke-width="1" stroke-linejoin="round"/>
  <polygon points="0,0 22,-12 22,12 0,24" fill="#856322" stroke="rgba(0,0,0,0.25)" stroke-width="1" stroke-linejoin="round"/>
</g>
<g class="isocube" transform="translate(-22, -60)">
  <polygon points="0,-24 22,-12 0,0 -22,-12" fill="#dcb756" stroke="rgba(0,0,0,0.25)" stroke-width="1" stroke-linejoin="round"/>
  <polygon points="0,0 -22,-12 -22,12 0,24" fill="#b48d3c" stroke="rgba(0,0,0,0.25)" stroke-width="1" stroke-linejoin="round"/>
  <polygon points="0,0 22,-12 22,12 0,24" fill="#856322" stroke="rgba(0,0,0,0.25)" stroke-width="1" stroke-linejoin="round"/>
</g>
<g class="isocube" transform="translate(22, -60)">
  <polygon points="0,-24 22,-12 0,0 -22,-12" fill="#dcb756" stroke="rgba(0,0,0,0.25)" stroke-width="1" stroke-linejoin="round"/>
  <polygon points="0,0 -22,-12 -22,12 0,24" fill="#b48d3c" stroke="rgba(0,0,0,0.25)" stroke-width="1" stroke-linejoin="round"/>
  <polygon points="0,0 22,-12 22,12 0,24" fill="#856322" stroke="rgba(0,0,0,0.25)" stroke-width="1" stroke-linejoin="round"/>
</g>
<g class="isocube" transform="translate(-44, 24)">
  <polygon points="0,-24 22,-12 0,0 -22,-12" fill="#dcb756" stroke="rgba(0,0,0,0.25)" stroke-width="1" stroke-linejoin="round"/>
  <polygon points="0,0 -22,-12 -22,12 0,24" fill="#b48d3c" stroke="rgba(0,0,0,0.25)" stroke-width="1" stroke-linejoin="round"/>
  <polygon points="0,0 22,-12 22,12 0,24" fill="#856322" stroke="rgba(0,0,0,0.25)" stroke-width="1" stroke-linejoin="round"/>
</g>
<g class="isocube" transform="translate(0, 24)">
  <polygon points="0,-24 22,-12 0,0 -22,-12" fill="#dcb756" stroke="rgba(0,0,0,0.25)" stroke-width="1" stroke-linejoin="round"/>
  <polygon points="0,0 -22,-12 -22,12 0,24" fill="#b48d3c" stroke="rgba(0,0,0,0.25)" stroke-width="1" stroke-linejoin="round"/>
  <polygon points="0,0 22,-12 22,12 0,24" fill="#856322" stroke="rgba(0,0,0,0.25)" stroke-width="1" stroke-linejoin="round"/>
</g>
<g class="isocube" transform="translate(44, 24)">
  <polygon points="0,-24 22,-12 0,0 -22,-12" fill="#dcb756" stroke="rgba(0,0,0,0.25)" stroke-width="1" stroke-linejoin="round"/>
  <polygon points="0,0 -22,-12 -22,12 0,24" fill="#b48d3c" stroke="rgba(0,0,0,0.25)" stroke-width="1" stroke-linejoin="round"/>
  <polygon points="0,0 22,-12 22,12 0,24" fill="#856322" stroke="rgba(0,0,0,0.25)" stroke-width="1" stroke-linejoin="round"/>
</g>
<g class="isocube" transform="translate(-22, -12)">
  <polygon points="0,-24 22,-12 0,0 -22,-12" fill="#dcb756" stroke="rgba(0,0,0,0.25)" stroke-width="1" stroke-linejoin="round"/>
  <polygon points="0,0 -22,-12 -22,12 0,24" fill="#b48d3c" stroke="rgba(0,0,0,0.25)" stroke-width="1" stroke-linejoin="round"/>
  <polygon points="0,0 22,-12 22,12 0,24" fill="#856322" stroke="rgba(0,0,0,0.25)" stroke-width="1" stroke-linejoin="round"/>
</g>
<g class="isocube" transform="translate(22, -12)">
  <polygon points="0,-24 22,-12 0,0 -22,-12" fill="#dcb756" stroke="rgba(0,0,0,0.25)" stroke-width="1" stroke-linejoin="round"/>
  <polygon points="0,0 -22,-12 -22,12 0,24" fill="#b48d3c" stroke="rgba(0,0,0,0.25)" stroke-width="1" stroke-linejoin="round"/>
  <polygon points="0,0 22,-12 22,12 0,24" fill="#856322" stroke="rgba(0,0,0,0.25)" stroke-width="1" stroke-linejoin="round"/>
</g>
<g class="isocube" transform="translate(0, -48)">
  <polygon points="0,-24 22,-12 0,0 -22,-12" fill="#dcb756" stroke="rgba(0,0,0,0.25)" stroke-width="1" stroke-linejoin="round"/>
  <polygon points="0,0 -22,-12 -22,12 0,24" fill="#b48d3c" stroke="rgba(0,0,0,0.25)" stroke-width="1" stroke-linejoin="round"/>
  <polygon points="0,0 22,-12 22,12 0,24" fill="#856322" stroke="rgba(0,0,0,0.25)" stroke-width="1" stroke-linejoin="round"/>
</g>
<g class="isocube" transform="translate(-22, -84)">
  <polygon points="0,-24 22,-12 0,0 -22,-12" fill="#dcb756" stroke="rgba(0,0,0,0.25)" stroke-width="1" stroke-linejoin="round"/>
  <polygon points="0,0 -22,-12 -22,12 0,24" fill="#b48d3c" stroke="rgba(0,0,0,0.25)" stroke-width="1" stroke-linejoin="round"/>
  <polygon points="0,0 22,-12 22,12 0,24" fill="#856322" stroke="rgba(0,0,0,0.25)" stroke-width="1" stroke-linejoin="round"/>
</g>
<g class="isocube" transform="translate(22, -84)">
  <polygon points="0,-24 22,-12 0,0 -22,-12" fill="#dcb756" stroke="rgba(0,0,0,0.25)" stroke-width="1" stroke-linejoin="round"/>
  <polygon points="0,0 -22,-12 -22,12 0,24" fill="#b48d3c" stroke="rgba(0,0,0,0.25)" stroke-width="1" stroke-linejoin="round"/>
  <polygon points="0,0 22,-12 22,12 0,24" fill="#856322" stroke="rgba(0,0,0,0.25)" stroke-width="1" stroke-linejoin="round"/>
</g>
<g class="isocube" transform="translate(-22, 36)">
  <polygon points="0,-24 22,-12 0,0 -22,-12" fill="#dcb756" stroke="rgba(0,0,0,0.25)" stroke-width="1" stroke-linejoin="round"/>
  <polygon points="0,0 -22,-12 -22,12 0,24" fill="#b48d3c" stroke="rgba(0,0,0,0.25)" stroke-width="1" stroke-linejoin="round"/>
  <polygon points="0,0 22,-12 22,12 0,24" fill="#856322" stroke="rgba(0,0,0,0.25)" stroke-width="1" stroke-linejoin="round"/>
</g>
<g class="isocube" transform="translate(22, 36)">
  <polygon points="0,-24 22,-12 0,0 -22,-12" fill="#dcb756" stroke="rgba(0,0,0,0.25)" stroke-width="1" stroke-linejoin="round"/>
  <polygon points="0,0 -22,-12 -22,12 0,24" fill="#b48d3c" stroke="rgba(0,0,0,0.25)" stroke-width="1" stroke-linejoin="round"/>
  <polygon points="0,0 22,-12 22,12 0,24" fill="#856322" stroke="rgba(0,0,0,0.25)" stroke-width="1" stroke-linejoin="round"/>
</g>
<g class="isocube" transform="translate(0, 0)">
  <polygon points="0,-24 22,-12 0,0 -22,-12" fill="#dcb756" stroke="rgba(0,0,0,0.25)" stroke-width="1" stroke-linejoin="round"/>
  <polygon points="0,0 -22,-12 -22,12 0,24" fill="#b48d3c" stroke="rgba(0,0,0,0.25)" stroke-width="1" stroke-linejoin="round"/>
  <polygon points="0,0 22,-12 22,12 0,24" fill="#856322" stroke="rgba(0,0,0,0.25)" stroke-width="1" stroke-linejoin="round"/>
</g>
<g class="isocube" transform="translate(22, -36)">
  <polygon points="0,-24 22,-12 0,0 -22,-12" fill="#dcb756" stroke="rgba(0,0,0,0.25)" stroke-width="1" stroke-linejoin="round"/>
  <polygon points="0,0 -22,-12 -22,12 0,24" fill="#b48d3c" stroke="rgba(0,0,0,0.25)" stroke-width="1" stroke-linejoin="round"/>
  <polygon points="0,0 22,-12 22,12 0,24" fill="#856322" stroke="rgba(0,0,0,0.25)" stroke-width="1" stroke-linejoin="round"/>
</g>
<g class="isocube" transform="translate(-22, -36)">
  <polygon points="0,-24 22,-12 0,0 -22,-12" fill="#dcb756" stroke="rgba(0,0,0,0.25)" stroke-width="1" stroke-linejoin="round"/>
  <polygon points="0,0 -22,-12 -22,12 0,24" fill="#b48d3c" stroke="rgba(0,0,0,0.25)" stroke-width="1" stroke-linejoin="round"/>
  <polygon points="0,0 22,-12 22,12 0,24" fill="#856322" stroke="rgba(0,0,0,0.25)" stroke-width="1" stroke-linejoin="round"/>
</g>
<g class="isocube" transform="translate(0, -72)">
  <polygon points="0,-24 22,-12 0,0 -22,-12" fill="#dcb756" stroke="rgba(0,0,0,0.25)" stroke-width="1" stroke-linejoin="round"/>
  <polygon points="0,0 -22,-12 -22,12 0,24" fill="#b48d3c" stroke="rgba(0,0,0,0.25)" stroke-width="1" stroke-linejoin="round"/>
  <polygon points="0,0 22,-12 22,12 0,24" fill="#856322" stroke="rgba(0,0,0,0.25)" stroke-width="1" stroke-linejoin="round"/>
</g>
<g class="isocube" transform="translate(-22, -108)">
  <polygon points="0,-24 22,-12 0,0 -22,-12" fill="#dcb756" stroke="rgba(0,0,0,0.25)" stroke-width="1" stroke-linejoin="round"/>
  <polygon points="0,0 -22,-12 -22,12 0,24" fill="#b48d3c" stroke="rgba(0,0,0,0.25)" stroke-width="1" stroke-linejoin="round"/>
  <polygon points="0,0 22,-12 22,12 0,24" fill="#856322" stroke="rgba(0,0,0,0.25)" stroke-width="1" stroke-linejoin="round"/>
</g>
<g class="isocube" transform="translate(22, -108)">
  <polygon points="0,-24 22,-12 0,0 -22,-12" fill="#dcb756" stroke="rgba(0,0,0,0.25)" stroke-width="1" stroke-linejoin="round"/>
  <polygon points="0,0 -22,-12 -22,12 0,24" fill="#b48d3c" stroke="rgba(0,0,0,0.25)" stroke-width="1" stroke-linejoin="round"/>
  <polygon points="0,0 22,-12 22,12 0,24" fill="#856322" stroke="rgba(0,0,0,0.25)" stroke-width="1" stroke-linejoin="round"/>
</g>
<g class="isocube" transform="translate(22, -60)">
  <polygon points="0,-24 22,-12 0,0 -22,-12" fill="#dcb756" stroke="rgba(0,0,0,0.25)" stroke-width="1" stroke-linejoin="round"/>
  <polygon points="0,0 -22,-12 -22,12 0,24" fill="#b48d3c" stroke="rgba(0,0,0,0.25)" stroke-width="1" stroke-linejoin="round"/>
  <polygon points="0,0 22,-12 22,12 0,24" fill="#856322" stroke="rgba(0,0,0,0.25)" stroke-width="1" stroke-linejoin="round"/>
</g>
<g class="isocube" transform="translate(-22, -60)">
  <polygon points="0,-24 22,-12 0,0 -22,-12" fill="#dcb756" stroke="rgba(0,0,0,0.25)" stroke-width="1" stroke-linejoin="round"/>
  <polygon points="0,0 -22,-12 -22,12 0,24" fill="#b48d3c" stroke="rgba(0,0,0,0.25)" stroke-width="1" stroke-linejoin="round"/>
  <polygon points="0,0 22,-12 22,12 0,24" fill="#856322" stroke="rgba(0,0,0,0.25)" stroke-width="1" stroke-linejoin="round"/>
</g>
<g class="isocube" transform="translate(0, -96)">
  <polygon points="0,-24 22,-12 0,0 -22,-12" fill="#dcb756" stroke="rgba(0,0,0,0.25)" stroke-width="1" stroke-linejoin="round"/>
  <polygon points="0,0 -22,-12 -22,12 0,24" fill="#b48d3c" stroke="rgba(0,0,0,0.25)" stroke-width="1" stroke-linejoin="round"/>
  <polygon points="0,0 22,-12 22,12 0,24" fill="#856322" stroke="rgba(0,0,0,0.25)" stroke-width="1" stroke-linejoin="round"/>
</g>
<g class="isocube" transform="translate(-22, -132)">
  <polygon points="0,-24 22,-12 0,0 -22,-12" fill="#dcb756" stroke="rgba(0,0,0,0.25)" stroke-width="1" stroke-linejoin="round"/>
  <polygon points="0,0 -22,-12 -22,12 0,24" fill="#b48d3c" stroke="rgba(0,0,0,0.25)" stroke-width="1" stroke-linejoin="round"/>
  <polygon points="0,0 22,-12 22,12 0,24" fill="#856322" stroke="rgba(0,0,0,0.25)" stroke-width="1" stroke-linejoin="round"/>
</g>
<g class="isocube" transform="translate(22, -132)">
  <polygon points="0,-24 22,-12 0,0 -22,-12" fill="#dcb756" stroke="rgba(0,0,0,0.25)" stroke-width="1" stroke-linejoin="round"/>
  <polygon points="0,0 -22,-12 -22,12 0,24" fill="#b48d3c" stroke="rgba(0,0,0,0.25)" stroke-width="1" stroke-linejoin="round"/>
  <polygon points="0,0 22,-12 22,12 0,24" fill="#856322" stroke="rgba(0,0,0,0.25)" stroke-width="1" stroke-linejoin="round"/>
</g>
<g class="isocube" transform="translate(0, -168)">
  <polygon points="0,-24 22,-12 0,0 -22,-12" fill="#dcb756" stroke="rgba(0,0,0,0.25)" stroke-width="1" stroke-linejoin="round"/>
  <polygon points="0,0 -22,-12 -22,12 0,24" fill="#b48d3c" stroke="rgba(0,0,0,0.25)" stroke-width="1" stroke-linejoin="round"/>
  <polygon points="0,0 22,-12 22,12 0,24" fill="#856322" stroke="rgba(0,0,0,0.25)" stroke-width="1" stroke-linejoin="round"/>
</g>
<g class="isocube" transform="translate(-22, -204)">
  <polygon points="0,-24 22,-12 0,0 -22,-12" fill="#dcb756" stroke="rgba(0,0,0,0.25)" stroke-width="1" stroke-linejoin="round"/>
  <polygon points="0,0 -22,-12 -22,12 0,24" fill="#b48d3c" stroke="rgba(0,0,0,0.25)" stroke-width="1" stroke-linejoin="round"/>
  <polygon points="0,0 22,-12 22,12 0,24" fill="#856322" stroke="rgba(0,0,0,0.25)" stroke-width="1" stroke-linejoin="round"/>
</g>
<g class="isocube" transform="translate(22, -204)">
  <polygon points="0,-24 22,-12 0,0 -22,-12" fill="#dcb756" stroke="rgba(0,0,0,0.25)" stroke-width="1" stroke-linejoin="round"/>
  <polygon points="0,0 -22,-12 -22,12 0,24" fill="#b48d3c" stroke="rgba(0,0,0,0.25)" stroke-width="1" stroke-linejoin="round"/>
  <polygon points="0,0 22,-12 22,12 0,24" fill="#856322" stroke="rgba(0,0,0,0.25)" stroke-width="1" stroke-linejoin="round"/>
</g>
<g class="isocube" transform="translate(22, -84)">
  <polygon points="0,-24 22,-12 0,0 -22,-12" fill="#dcb756" stroke="rgba(0,0,0,0.25)" stroke-width="1" stroke-linejoin="round"/>
  <polygon points="0,0 -22,-12 -22,12 0,24" fill="#b48d3c" stroke="rgba(0,0,0,0.25)" stroke-width="1" stroke-linejoin="round"/>
  <polygon points="0,0 22,-12 22,12 0,24" fill="#856322" stroke="rgba(0,0,0,0.25)" stroke-width="1" stroke-linejoin="round"/>
</g>
<g class="isocube" transform="translate(-22, -84)">
  <polygon points="0,-24 22,-12 0,0 -22,-12" fill="#dcb756" stroke="rgba(0,0,0,0.25)" stroke-width="1" stroke-linejoin="round"/>
  <polygon points="0,0 -22,-12 -22,12 0,24" fill="#b48d3c" stroke="rgba(0,0,0,0.25)" stroke-width="1" stroke-linejoin="round"/>
  <polygon points="0,0 22,-12 22,12 0,24" fill="#856322" stroke="rgba(0,0,0,0.25)" stroke-width="1" stroke-linejoin="round"/>
</g>
<g class="isocube" transform="translate(0, -120)">
  <polygon points="0,-24 22,-12 0,0 -22,-12" fill="#dcb756" stroke="rgba(0,0,0,0.25)" stroke-width="1" stroke-linejoin="round"/>
  <polygon points="0,0 -22,-12 -22,12 0,24" fill="#b48d3c" stroke="rgba(0,0,0,0.25)" stroke-width="1" stroke-linejoin="round"/>
  <polygon points="0,0 22,-12 22,12 0,24" fill="#856322" stroke="rgba(0,0,0,0.25)" stroke-width="1" stroke-linejoin="round"/>
</g>
<g class="isocube" transform="translate(-22, -156)">
  <polygon points="0,-24 22,-12 0,0 -22,-12" fill="#dcb756" stroke="rgba(0,0,0,0.25)" stroke-width="1" stroke-linejoin="round"/>
  <polygon points="0,0 -22,-12 -22,12 0,24" fill="#b48d3c" stroke="rgba(0,0,0,0.25)" stroke-width="1" stroke-linejoin="round"/>
  <polygon points="0,0 22,-12 22,12 0,24" fill="#856322" stroke="rgba(0,0,0,0.25)" stroke-width="1" stroke-linejoin="round"/>
</g>
<g class="isocube" transform="translate(22, -156)">
  <polygon points="0,-24 22,-12 0,0 -22,-12" fill="#dcb756" stroke="rgba(0,0,0,0.25)" stroke-width="1" stroke-linejoin="round"/>
  <polygon points="0,0 -22,-12 -22,12 0,24" fill="#b48d3c" stroke="rgba(0,0,0,0.25)" stroke-width="1" stroke-linejoin="round"/>
  <polygon points="0,0 22,-12 22,12 0,24" fill="#856322" stroke="rgba(0,0,0,0.25)" stroke-width="1" stroke-linejoin="round"/>
</g>
<g class="isocube" transform="translate(-44, -192)">
  <polygon points="0,-24 22,-12 0,0 -22,-12" fill="#dcb756" stroke="rgba(0,0,0,0.25)" stroke-width="1" stroke-linejoin="round"/>
  <polygon points="0,0 -22,-12 -22,12 0,24" fill="#b48d3c" stroke="rgba(0,0,0,0.25)" stroke-width="1" stroke-linejoin="round"/>
  <polygon points="0,0 22,-12 22,12 0,24" fill="#856322" stroke="rgba(0,0,0,0.25)" stroke-width="1" stroke-linejoin="round"/>
</g>
<g class="isocube" transform="translate(0, -192)">
  <polygon points="0,-24 22,-12 0,0 -22,-12" fill="#dcb756" stroke="rgba(0,0,0,0.25)" stroke-width="1" stroke-linejoin="round"/>
  <polygon points="0,0 -22,-12 -22,12 0,24" fill="#b48d3c" stroke="rgba(0,0,0,0.25)" stroke-width="1" stroke-linejoin="round"/>
  <polygon points="0,0 22,-12 22,12 0,24" fill="#856322" stroke="rgba(0,0,0,0.25)" stroke-width="1" stroke-linejoin="round"/>
</g>
<g class="isocube" transform="translate(44, -192)">
  <polygon points="0,-24 22,-12 0,0 -22,-12" fill="#dcb756" stroke="rgba(0,0,0,0.25)" stroke-width="1" stroke-linejoin="round"/>
  <polygon points="0,0 -22,-12 -22,12 0,24" fill="#b48d3c" stroke="rgba(0,0,0,0.25)" stroke-width="1" stroke-linejoin="round"/>
  <polygon points="0,0 22,-12 22,12 0,24" fill="#856322" stroke="rgba(0,0,0,0.25)" stroke-width="1" stroke-linejoin="round"/>
</g>
<g class="isocube" transform="translate(22, -228)">
  <polygon points="0,-24 22,-12 0,0 -22,-12" fill="#dcb756" stroke="rgba(0,0,0,0.25)" stroke-width="1" stroke-linejoin="round"/>
  <polygon points="0,0 -22,-12 -22,12 0,24" fill="#b48d3c" stroke="rgba(0,0,0,0.25)" stroke-width="1" stroke-linejoin="round"/>
  <polygon points="0,0 22,-12 22,12 0,24" fill="#856322" stroke="rgba(0,0,0,0.25)" stroke-width="1" stroke-linejoin="round"/>
</g>
<g class="isocube" transform="translate(-22, -228)">
  <polygon points="0,-24 22,-12 0,0 -22,-12" fill="#dcb756" stroke="rgba(0,0,0,0.25)" stroke-width="1" stroke-linejoin="round"/>
  <polygon points="0,0 -22,-12 -22,12 0,24" fill="#b48d3c" stroke="rgba(0,0,0,0.25)" stroke-width="1" stroke-linejoin="round"/>
  <polygon points="0,0 22,-12 22,12 0,24" fill="#856322" stroke="rgba(0,0,0,0.25)" stroke-width="1" stroke-linejoin="round"/>
</g>
<g class="isocube" transform="translate(22, -108)">
  <polygon points="0,-24 22,-12 0,0 -22,-12" fill="#dcb756" stroke="rgba(0,0,0,0.25)" stroke-width="1" stroke-linejoin="round"/>
  <polygon points="0,0 -22,-12 -22,12 0,24" fill="#b48d3c" stroke="rgba(0,0,0,0.25)" stroke-width="1" stroke-linejoin="round"/>
  <polygon points="0,0 22,-12 22,12 0,24" fill="#856322" stroke="rgba(0,0,0,0.25)" stroke-width="1" stroke-linejoin="round"/>
</g>
<g class="isocube" transform="translate(-22, -108)">
  <polygon points="0,-24 22,-12 0,0 -22,-12" fill="#dcb756" stroke="rgba(0,0,0,0.25)" stroke-width="1" stroke-linejoin="round"/>
  <polygon points="0,0 -22,-12 -22,12 0,24" fill="#b48d3c" stroke="rgba(0,0,0,0.25)" stroke-width="1" stroke-linejoin="round"/>
  <polygon points="0,0 22,-12 22,12 0,24" fill="#856322" stroke="rgba(0,0,0,0.25)" stroke-width="1" stroke-linejoin="round"/>
</g>
<g class="isocube" transform="translate(-44, -144)">
  <polygon points="0,-24 22,-12 0,0 -22,-12" fill="#dcb756" stroke="rgba(0,0,0,0.25)" stroke-width="1" stroke-linejoin="round"/>
  <polygon points="0,0 -22,-12 -22,12 0,24" fill="#b48d3c" stroke="rgba(0,0,0,0.25)" stroke-width="1" stroke-linejoin="round"/>
  <polygon points="0,0 22,-12 22,12 0,24" fill="#856322" stroke="rgba(0,0,0,0.25)" stroke-width="1" stroke-linejoin="round"/>
</g>
<g class="isocube" transform="translate(0, -144)">
  <polygon points="0,-24 22,-12 0,0 -22,-12" fill="#dcb756" stroke="rgba(0,0,0,0.25)" stroke-width="1" stroke-linejoin="round"/>
  <polygon points="0,0 -22,-12 -22,12 0,24" fill="#b48d3c" stroke="rgba(0,0,0,0.25)" stroke-width="1" stroke-linejoin="round"/>
  <polygon points="0,0 22,-12 22,12 0,24" fill="#856322" stroke="rgba(0,0,0,0.25)" stroke-width="1" stroke-linejoin="round"/>
</g>
<g class="isocube" transform="translate(44, -144)">
  <polygon points="0,-24 22,-12 0,0 -22,-12" fill="#dcb756" stroke="rgba(0,0,0,0.25)" stroke-width="1" stroke-linejoin="round"/>
  <polygon points="0,0 -22,-12 -22,12 0,24" fill="#b48d3c" stroke="rgba(0,0,0,0.25)" stroke-width="1" stroke-linejoin="round"/>
  <polygon points="0,0 22,-12 22,12 0,24" fill="#856322" stroke="rgba(0,0,0,0.25)" stroke-width="1" stroke-linejoin="round"/>
</g>
<g class="isocube" transform="translate(-66, -180)">
  <polygon points="0,-24 22,-12 0,0 -22,-12" fill="#dcb756" stroke="rgba(0,0,0,0.25)" stroke-width="1" stroke-linejoin="round"/>
  <polygon points="0,0 -22,-12 -22,12 0,24" fill="#b48d3c" stroke="rgba(0,0,0,0.25)" stroke-width="1" stroke-linejoin="round"/>
  <polygon points="0,0 22,-12 22,12 0,24" fill="#856322" stroke="rgba(0,0,0,0.25)" stroke-width="1" stroke-linejoin="round"/>
</g>
<g class="isocube" transform="translate(-22, -180)">
  <polygon points="0,-24 22,-12 0,0 -22,-12" fill="#dcb756" stroke="rgba(0,0,0,0.25)" stroke-width="1" stroke-linejoin="round"/>
  <polygon points="0,0 -22,-12 -22,12 0,24" fill="#b48d3c" stroke="rgba(0,0,0,0.25)" stroke-width="1" stroke-linejoin="round"/>
  <polygon points="0,0 22,-12 22,12 0,24" fill="#856322" stroke="rgba(0,0,0,0.25)" stroke-width="1" stroke-linejoin="round"/>
</g>
<g class="isocube" transform="translate(22, -180)">
  <polygon points="0,-24 22,-12 0,0 -22,-12" fill="#dcb756" stroke="rgba(0,0,0,0.25)" stroke-width="1" stroke-linejoin="round"/>
  <polygon points="0,0 -22,-12 -22,12 0,24" fill="#b48d3c" stroke="rgba(0,0,0,0.25)" stroke-width="1" stroke-linejoin="round"/>
  <polygon points="0,0 22,-12 22,12 0,24" fill="#856322" stroke="rgba(0,0,0,0.25)" stroke-width="1" stroke-linejoin="round"/>
</g>
<g class="isocube" transform="translate(66, -180)">
  <polygon points="0,-24 22,-12 0,0 -22,-12" fill="#dcb756" stroke="rgba(0,0,0,0.25)" stroke-width="1" stroke-linejoin="round"/>
  <polygon points="0,0 -22,-12 -22,12 0,24" fill="#b48d3c" stroke="rgba(0,0,0,0.25)" stroke-width="1" stroke-linejoin="round"/>
  <polygon points="0,0 22,-12 22,12 0,24" fill="#856322" stroke="rgba(0,0,0,0.25)" stroke-width="1" stroke-linejoin="round"/>
</g>
<g class="isocube" transform="translate(-22, -132)">
  <polygon points="0,-24 22,-12 0,0 -22,-12" fill="#dcb756" stroke="rgba(0,0,0,0.25)" stroke-width="1" stroke-linejoin="round"/>
  <polygon points="0,0 -22,-12 -22,12 0,24" fill="#b48d3c" stroke="rgba(0,0,0,0.25)" stroke-width="1" stroke-linejoin="round"/>
  <polygon points="0,0 22,-12 22,12 0,24" fill="#856322" stroke="rgba(0,0,0,0.25)" stroke-width="1" stroke-linejoin="round"/>
</g>
<g class="isocube" transform="translate(22, -132)">
  <polygon points="0,-24 22,-12 0,0 -22,-12" fill="#dcb756" stroke="rgba(0,0,0,0.25)" stroke-width="1" stroke-linejoin="round"/>
  <polygon points="0,0 -22,-12 -22,12 0,24" fill="#b48d3c" stroke="rgba(0,0,0,0.25)" stroke-width="1" stroke-linejoin="round"/>
  <polygon points="0,0 22,-12 22,12 0,24" fill="#856322" stroke="rgba(0,0,0,0.25)" stroke-width="1" stroke-linejoin="round"/>
</g>
<g class="isocube" transform="translate(-44, -168)">
  <polygon points="0,-24 22,-12 0,0 -22,-12" fill="#dcb756" stroke="rgba(0,0,0,0.25)" stroke-width="1" stroke-linejoin="round"/>
  <polygon points="0,0 -22,-12 -22,12 0,24" fill="#b48d3c" stroke="rgba(0,0,0,0.25)" stroke-width="1" stroke-linejoin="round"/>
  <polygon points="0,0 22,-12 22,12 0,24" fill="#856322" stroke="rgba(0,0,0,0.25)" stroke-width="1" stroke-linejoin="round"/>
</g>
<g class="isocube" transform="translate(0, -168)">
  <polygon points="0,-24 22,-12 0,0 -22,-12" fill="#dcb756" stroke="rgba(0,0,0,0.25)" stroke-width="1" stroke-linejoin="round"/>
  <polygon points="0,0 -22,-12 -22,12 0,24" fill="#b48d3c" stroke="rgba(0,0,0,0.25)" stroke-width="1" stroke-linejoin="round"/>
  <polygon points="0,0 22,-12 22,12 0,24" fill="#856322" stroke="rgba(0,0,0,0.25)" stroke-width="1" stroke-linejoin="round"/>
</g>
<g class="isocube" transform="translate(44, -168)">
  <polygon points="0,-24 22,-12 0,0 -22,-12" fill="#dcb756" stroke="rgba(0,0,0,0.25)" stroke-width="1" stroke-linejoin="round"/>
  <polygon points="0,0 -22,-12 -22,12 0,24" fill="#b48d3c" stroke="rgba(0,0,0,0.25)" stroke-width="1" stroke-linejoin="round"/>
  <polygon points="0,0 22,-12 22,12 0,24" fill="#856322" stroke="rgba(0,0,0,0.25)" stroke-width="1" stroke-linejoin="round"/>
</g>
<g class="isocube" transform="translate(66, -204)">
  <polygon points="0,-24 22,-12 0,0 -22,-12" fill="#dcb756" stroke="rgba(0,0,0,0.25)" stroke-width="1" stroke-linejoin="round"/>
  <polygon points="0,0 -22,-12 -22,12 0,24" fill="#b48d3c" stroke="rgba(0,0,0,0.25)" stroke-width="1" stroke-linejoin="round"/>
  <polygon points="0,0 22,-12 22,12 0,24" fill="#856322" stroke="rgba(0,0,0,0.25)" stroke-width="1" stroke-linejoin="round"/>
</g>
<g class="isocube" transform="translate(-66, -204)">
  <polygon points="0,-24 22,-12 0,0 -22,-12" fill="#dcb756" stroke="rgba(0,0,0,0.25)" stroke-width="1" stroke-linejoin="round"/>
  <polygon points="0,0 -22,-12 -22,12 0,24" fill="#b48d3c" stroke="rgba(0,0,0,0.25)" stroke-width="1" stroke-linejoin="round"/>
  <polygon points="0,0 22,-12 22,12 0,24" fill="#856322" stroke="rgba(0,0,0,0.25)" stroke-width="1" stroke-linejoin="round"/>
</g>
<g class="isocube" transform="translate(0, -120)">
  <polygon points="0,-24 22,-12 0,0 -22,-12" fill="#dcb756" stroke="rgba(0,0,0,0.25)" stroke-width="1" stroke-linejoin="round"/>
  <polygon points="0,0 -22,-12 -22,12 0,24" fill="#b48d3c" stroke="rgba(0,0,0,0.25)" stroke-width="1" stroke-linejoin="round"/>
  <polygon points="0,0 22,-12 22,12 0,24" fill="#856322" stroke="rgba(0,0,0,0.25)" stroke-width="1" stroke-linejoin="round"/>
</g>
<g class="isocube" transform="translate(-66, -156)">
  <polygon points="0,-24 22,-12 0,0 -22,-12" fill="#dcb756" stroke="rgba(0,0,0,0.25)" stroke-width="1" stroke-linejoin="round"/>
  <polygon points="0,0 -22,-12 -22,12 0,24" fill="#b48d3c" stroke="rgba(0,0,0,0.25)" stroke-width="1" stroke-linejoin="round"/>
  <polygon points="0,0 22,-12 22,12 0,24" fill="#856322" stroke="rgba(0,0,0,0.25)" stroke-width="1" stroke-linejoin="round"/>
</g>
<g class="isocube" transform="translate(-22, -156)">
  <polygon points="0,-24 22,-12 0,0 -22,-12" fill="#dcb756" stroke="rgba(0,0,0,0.25)" stroke-width="1" stroke-linejoin="round"/>
  <polygon points="0,0 -22,-12 -22,12 0,24" fill="#b48d3c" stroke="rgba(0,0,0,0.25)" stroke-width="1" stroke-linejoin="round"/>
  <polygon points="0,0 22,-12 22,12 0,24" fill="#856322" stroke="rgba(0,0,0,0.25)" stroke-width="1" stroke-linejoin="round"/>
</g>
<g class="isocube" transform="translate(22, -156)">
  <polygon points="0,-24 22,-12 0,0 -22,-12" fill="#dcb756" stroke="rgba(0,0,0,0.25)" stroke-width="1" stroke-linejoin="round"/>
  <polygon points="0,0 -22,-12 -22,12 0,24" fill="#b48d3c" stroke="rgba(0,0,0,0.25)" stroke-width="1" stroke-linejoin="round"/>
  <polygon points="0,0 22,-12 22,12 0,24" fill="#856322" stroke="rgba(0,0,0,0.25)" stroke-width="1" stroke-linejoin="round"/>
</g>
<g class="isocube" transform="translate(66, -156)">
  <polygon points="0,-24 22,-12 0,0 -22,-12" fill="#dcb756" stroke="rgba(0,0,0,0.25)" stroke-width="1" stroke-linejoin="round"/>
  <polygon points="0,0 -22,-12 -22,12 0,24" fill="#b48d3c" stroke="rgba(0,0,0,0.25)" stroke-width="1" stroke-linejoin="round"/>
  <polygon points="0,0 22,-12 22,12 0,24" fill="#856322" stroke="rgba(0,0,0,0.25)" stroke-width="1" stroke-linejoin="round"/>
</g>
<g class="isocube" transform="translate(-44, -144)">
  <polygon points="0,-24 22,-12 0,0 -22,-12" fill="#dcb756" stroke="rgba(0,0,0,0.25)" stroke-width="1" stroke-linejoin="round"/>
  <polygon points="0,0 -22,-12 -22,12 0,24" fill="#b48d3c" stroke="rgba(0,0,0,0.25)" stroke-width="1" stroke-linejoin="round"/>
  <polygon points="0,0 22,-12 22,12 0,24" fill="#856322" stroke="rgba(0,0,0,0.25)" stroke-width="1" stroke-linejoin="round"/>
</g>
<g class="isocube" transform="translate(0, -144)">
  <polygon points="0,-24 22,-12 0,0 -22,-12" fill="#dcb756" stroke="rgba(0,0,0,0.25)" stroke-width="1" stroke-linejoin="round"/>
  <polygon points="0,0 -22,-12 -22,12 0,24" fill="#b48d3c" stroke="rgba(0,0,0,0.25)" stroke-width="1" stroke-linejoin="round"/>
  <polygon points="0,0 22,-12 22,12 0,24" fill="#856322" stroke="rgba(0,0,0,0.25)" stroke-width="1" stroke-linejoin="round"/>
</g>
<g class="isocube" transform="translate(44, -144)">
  <polygon points="0,-24 22,-12 0,0 -22,-12" fill="#dcb756" stroke="rgba(0,0,0,0.25)" stroke-width="1" stroke-linejoin="round"/>
  <polygon points="0,0 -22,-12 -22,12 0,24" fill="#b48d3c" stroke="rgba(0,0,0,0.25)" stroke-width="1" stroke-linejoin="round"/>
  <polygon points="0,0 22,-12 22,12 0,24" fill="#856322" stroke="rgba(0,0,0,0.25)" stroke-width="1" stroke-linejoin="round"/>
</g>
<g class="isocube" transform="translate(-66, -180)">
  <polygon points="0,-24 22,-12 0,0 -22,-12" fill="#dcb756" stroke="rgba(0,0,0,0.25)" stroke-width="1" stroke-linejoin="round"/>
  <polygon points="0,0 -22,-12 -22,12 0,24" fill="#b48d3c" stroke="rgba(0,0,0,0.25)" stroke-width="1" stroke-linejoin="round"/>
  <polygon points="0,0 22,-12 22,12 0,24" fill="#856322" stroke="rgba(0,0,0,0.25)" stroke-width="1" stroke-linejoin="round"/>
</g>
<g class="isocube" transform="translate(66, -180)">
  <polygon points="0,-24 22,-12 0,0 -22,-12" fill="#dcb756" stroke="rgba(0,0,0,0.25)" stroke-width="1" stroke-linejoin="round"/>
  <polygon points="0,0 -22,-12 -22,12 0,24" fill="#b48d3c" stroke="rgba(0,0,0,0.25)" stroke-width="1" stroke-linejoin="round"/>
  <polygon points="0,0 22,-12 22,12 0,24" fill="#856322" stroke="rgba(0,0,0,0.25)" stroke-width="1" stroke-linejoin="round"/>
</g>
<g class="isocube" transform="translate(-22, -132)">
  <polygon points="0,-24 22,-12 0,0 -22,-12" fill="#dcb756" stroke="rgba(0,0,0,0.25)" stroke-width="1" stroke-linejoin="round"/>
  <polygon points="0,0 -22,-12 -22,12 0,24" fill="#b48d3c" stroke="rgba(0,0,0,0.25)" stroke-width="1" stroke-linejoin="round"/>
  <polygon points="0,0 22,-12 22,12 0,24" fill="#856322" stroke="rgba(0,0,0,0.25)" stroke-width="1" stroke-linejoin="round"/>
</g>
<g class="isocube" transform="translate(22, -132)">
  <polygon points="0,-24 22,-12 0,0 -22,-12" fill="#dcb756" stroke="rgba(0,0,0,0.25)" stroke-width="1" stroke-linejoin="round"/>
  <polygon points="0,0 -22,-12 -22,12 0,24" fill="#b48d3c" stroke="rgba(0,0,0,0.25)" stroke-width="1" stroke-linejoin="round"/>
  <polygon points="0,0 22,-12 22,12 0,24" fill="#856322" stroke="rgba(0,0,0,0.25)" stroke-width="1" stroke-linejoin="round"/>
</g>
<g class="isocube" transform="translate(-22, -156)">
  <polygon points="0,-24 22,-12 0,0 -22,-12" fill="#dcb756" stroke="rgba(0,0,0,0.25)" stroke-width="1" stroke-linejoin="round"/>
  <polygon points="0,0 -22,-12 -22,12 0,24" fill="#b48d3c" stroke="rgba(0,0,0,0.25)" stroke-width="1" stroke-linejoin="round"/>
  <polygon points="0,0 22,-12 22,12 0,24" fill="#856322" stroke="rgba(0,0,0,0.25)" stroke-width="1" stroke-linejoin="round"/>
</g>
<g class="isocube" transform="translate(22, -156)">
  <polygon points="0,-24 22,-12 0,0 -22,-12" fill="#dcb756" stroke="rgba(0,0,0,0.25)" stroke-width="1" stroke-linejoin="round"/>
  <polygon points="0,0 -22,-12 -22,12 0,24" fill="#b48d3c" stroke="rgba(0,0,0,0.25)" stroke-width="1" stroke-linejoin="round"/>
  <polygon points="0,0 22,-12 22,12 0,24" fill="#856322" stroke="rgba(0,0,0,0.25)" stroke-width="1" stroke-linejoin="round"/>
</g>
</svg>